<svg width="26" height="19" viewBox="0 0 26 19" fill="none" xmlns="http://www.w3.org/2000/svg">
<path d="M25.8508 11.1848L22.5816 16.789C22.3272 17.2251 21.963 17.5869 21.5251 17.8384C21.0873 18.0899 20.5912 18.2222 20.0863 18.2222H2.03238C1.19627 18.2222 0.675323 17.3152 1.0966 16.593L4.36574 10.9888C4.62016 10.5527 4.98443 10.1908 5.42227 9.93936C5.8601 9.68788 6.3562 9.55555 6.86111 9.55555H24.915C25.7512 9.55555 26.2721 10.4625 25.8508 11.1848ZM6.86111 8.11111H21.6667V5.94444C21.6667 4.74781 20.6966 3.77777 19.5 3.77777H12.2778L9.38889 0.888885H2.16667C0.970035 0.888885 0 1.85892 0 3.05555V15.6062L3.11806 10.261C3.8916 8.93489 5.32589 8.11111 6.86111 8.11111Z" fill="black"/>
</svg>